<svg xmlns="http://www.w3.org/2000/svg" viewBox="0 0 512.58 52.81">
  <path d="M9.35 0 0 9.68h53.63V0zm7.87 52.81h9.51V23.45l-9.51 9.52zm10.53-31.03h25.88v-9.73l-18.04.11z" style="fill:#0bad45"/>
  <path d="M117.28 8.83H67.64c-.07 0-.14.03-.19.09-.06.06-.09.13-.09.23v5.41c0 .07.03.13.09.19s.12.09.19.09h21.3v28.83c0 .09.03.17.09.23s.13.09.23.09h6.43c.07 0 .13-.03.19-.09s.09-.13.09-.23V14.84h21.3c.07 0 .13-.03.19-.09s.09-.12.09-.19V9.15c0-.09-.03-.17-.09-.23s-.12-.09-.19-.09Zm13.94 0h-6.43c-.07 0-.14.03-.19.09-.06.06-.09.13-.09.23v34.56c0 .07.03.13.09.19s.12.09.19.09h6.43c.09 0 .17-.03.23-.09s.09-.12.09-.19V9.14c0-.09-.03-.17-.09-.23a.32.32 0 0 0-.23-.09Zm57.38 5.92c.06-.06.09-.12.09-.19V9.15c0-.09-.03-.17-.09-.23s-.12-.09-.19-.09h-49.64c-.07 0-.14.03-.19.09-.06.06-.09.13-.09.23v5.41c0 .07.03.13.09.19s.12.09.19.09h21.3v28.83c0 .09.03.17.09.23s.13.09.23.09h6.43c.07 0 .13-.03.19-.09s.09-.13.09-.23V14.84h21.3c.07 0 .13-.03.19-.09Zm40.26-5.92h-14.03c-2.39 0-4.52.89-6.4 2.67l-31.99 31.99c-.09.09-.12.2-.07.32s.14.18.28.18h8.96c.07 0 .14-.02.21-.07l28.34-28.16c.61-.59 1.31-.88 2.11-.88h5.87v28.83c0 .07.03.13.09.19s.12.09.19.09h6.43c.09 0 .17-.03.23-.09s.09-.12.09-.19V9.14c0-.09-.03-.17-.09-.23s-.13-.09-.23-.09Zm57.18 0h-6.43c-.09 0-.17.03-.23.09s-.09.13-.09.23v28.83h-4.5c-1.03 0-1.88-.46-2.53-1.37l-16.35-24.33q-2.325-3.3-6.36-3.45H236.4c-.07 0-.13.03-.19.09s-.09.13-.09.23v34.56c0 .07.03.13.09.19s.12.09.19.09h6.43c.09 0 .17-.03.23-.09s.09-.12.09-.19V14.87h4.5c1.01 0 1.85.45 2.53 1.34l16.35 24.36c1.55 2.2 3.67 3.34 6.36 3.41h13.15c.07 0 .13-.03.19-.09s.09-.12.09-.19V9.14c0-.09-.03-.17-.09-.23s-.12-.09-.19-.09Zm47.41 0h-39.87c-.09 0-.17.03-.23.09s-.09.13-.09.23v34.56c0 .07.03.13.09.19s.13.09.23.09h39.87c2.77 0 5.13-.98 7.1-2.94s2.95-4.32 2.95-7.08v-.53c0-2.74-.96-5.09-2.88-7.03 1.92-1.95 2.88-4.29 2.88-7.03v-.49c0-2.77-.98-5.13-2.95-7.1s-4.34-2.95-7.1-2.95Zm3.03 26.12c0 .84-.3 1.56-.9 2.14s-1.31.88-2.13.88H300.3v-8.54h33.15c.82 0 1.53.29 2.13.88s.9 1.3.9 2.14zm0-14.56q0 1.23-.9 2.13c-.9.9-1.31.9-2.13.9H300.3v-8.54h33.15c.82 0 1.53.29 2.13.88s.9 1.29.9 2.11v2.53Zm61.03-11.56h-14.03c-2.39 0-4.52.89-6.4 2.67l-31.99 31.99c-.09.09-.12.2-.07.32s.14.18.28.18h8.96c.07 0 .14-.02.21-.07l28.34-28.16c.61-.59 1.31-.88 2.11-.88h5.87v28.83c0 .07.03.13.09.19s.12.09.19.09h6.43c.09 0 .17-.03.23-.09s.09-.12.09-.19V9.14c0-.09-.03-.17-.09-.23s-.13-.09-.23-.09ZM445 23.38h-30.16c-.82 0-1.52-.29-2.11-.88s-.88-1.3-.88-2.14v-2.5c0-.84.29-1.56.88-2.14s1.29-.88 2.11-.88h37.9c.07 0 .13-.03.19-.09s.09-.12.09-.19V9.11c0-.07-.03-.13-.09-.19s-.12-.09-.19-.09h-37.9q-4.155 0-7.08 2.94c-2.925 2.94-2.94 4.32-2.94 7.08v.53q0 4.155 2.94 7.08c2.94 2.925 4.32 2.94 7.08 2.94H445c.82 0 1.52.3 2.11.9s.88 1.31.88 2.13v2.53c0 .82-.29 1.52-.88 2.11s-1.29.88-2.11.88h-37.9c-.07 0-.13.03-.19.09s-.09.13-.09.23v5.41c0 .09.03.17.09.23s.12.09.19.09H445c2.77 0 5.13-.98 7.08-2.95s2.94-4.34 2.94-7.1v-.49c0-2.79-.98-5.16-2.94-7.12s-4.32-2.94-7.08-2.94Zm25.25-7.64c.59-.6 1.3-.9 2.14-.9h39.87c.09 0 .17-.03.23-.09s.09-.12.09-.19V9.15c0-.09-.03-.17-.09-.23s-.13-.09-.23-.09h-39.87c-2.79 0-5.16.98-7.12 2.94s-2.94 4.33-2.94 7.12v15.05c0 2.79.98 5.16 2.94 7.12S469.6 44 472.39 44h39.87c.09 0 .17-.03.23-.09s.09-.13.09-.23v-5.41c0-.07-.03-.13-.09-.19s-.13-.09-.23-.09h-39.87c-.84 0-1.56-.3-2.14-.9s-.88-1.31-.88-2.13v-5.52h37.86c.09 0 .17-.03.23-.09s.09-.13.09-.23v-5.41c0-.09-.03-.17-.09-.23s-.13-.09-.23-.09h-37.86v-5.52c0-.82.29-1.53.88-2.13"/>
</svg>
