<?xml version="1.0" encoding="UTF-8"?>
<svg id="b" data-name="Layer 2" xmlns="http://www.w3.org/2000/svg" viewBox="0 0 512.58 52.81">
  <defs>
    <style>
      .d {
        fill: #fff;
      }

      .e {
        fill: #0bad45;
      }
    </style>
  </defs>
  <g id="c" data-name="Layer 1">
    <g>
      <g>
        <polygon class="e" points="9.35 0 0 9.68 53.63 9.68 53.63 0 9.35 0"/>
        <polygon class="e" points="17.22 52.81 26.73 52.81 26.73 23.45 17.22 32.97 17.22 52.81"/>
        <polygon class="e" points="27.75 21.78 53.63 21.78 53.63 12.05 35.59 12.16 27.75 21.78"/>
      </g>
      <g>
        <path class="d" d="M117.28,8.83h-49.64c-.07,0-.14.03-.19.09-.06.06-.09.13-.09.23v5.41c0,.07.03.13.09.19.06.06.12.09.19.09h21.3v28.83c0,.09.03.17.09.23.06.06.13.09.23.09h6.43c.07,0,.13-.03.19-.09.06-.06.09-.13.09-.23V14.84h21.3c.07,0,.13-.03.19-.09.06-.06.09-.12.09-.19v-5.41c0-.09-.03-.17-.09-.23-.06-.06-.12-.09-.19-.09Z"/>
        <path class="d" d="M131.22,8.83h-6.43c-.07,0-.14.03-.19.09-.06.06-.09.13-.09.23v34.56c0,.07.03.13.09.19.06.06.12.09.19.09h6.43c.09,0,.17-.03.23-.09.06-.06.09-.12.09-.19V9.14c0-.09-.03-.17-.09-.23-.06-.06-.14-.09-.23-.09Z"/>
        <path class="d" d="M188.6,14.75c.06-.06.09-.12.09-.19v-5.41c0-.09-.03-.17-.09-.23s-.12-.09-.19-.09h-49.64c-.07,0-.14.03-.19.09-.06.06-.09.13-.09.23v5.41c0,.07.03.13.09.19.06.06.12.09.19.09h21.3v28.83c0,.09.03.17.09.23s.13.09.23.09h6.43c.07,0,.13-.03.19-.09s.09-.13.09-.23V14.84h21.3c.07,0,.13-.03.19-.09Z"/>
        <path class="d" d="M228.86,8.83h-14.03c-2.39,0-4.52.89-6.4,2.67l-31.99,31.99c-.09.09-.12.2-.07.32s.14.18.28.18h8.96c.07,0,.14-.02.21-.07l28.34-28.16c.61-.59,1.31-.88,2.11-.88h5.87v28.83c0,.07.03.13.09.19s.12.09.19.09h6.43c.09,0,.17-.03.23-.09s.09-.12.09-.19V9.14c0-.09-.03-.17-.09-.23s-.13-.09-.23-.09Z"/>
        <path class="d" d="M286.04,8.83h-6.43c-.09,0-.17.03-.23.09s-.09.13-.09.23v28.83h-4.5c-1.03,0-1.88-.46-2.53-1.37l-16.35-24.33c-1.55-2.2-3.67-3.35-6.36-3.45h-13.15c-.07,0-.13.03-.19.09s-.09.13-.09.23v34.56c0,.07.03.13.09.19s.12.09.19.09h6.43c.09,0,.17-.03.23-.09s.09-.12.09-.19V14.87h4.5c1.01,0,1.85.45,2.53,1.34l16.35,24.36c1.55,2.2,3.67,3.34,6.36,3.41h13.15c.07,0,.13-.03.19-.09s.09-.12.09-.19V9.14c0-.09-.03-.17-.09-.23s-.12-.09-.19-.09Z"/>
        <path class="d" d="M333.45,8.83h-39.87c-.09,0-.17.03-.23.09s-.09.13-.09.23v34.56c0,.07.03.13.09.19s.13.09.23.09h39.87c2.77,0,5.13-.98,7.1-2.94s2.95-4.32,2.95-7.08v-.53c0-2.74-.96-5.09-2.88-7.03,1.92-1.95,2.88-4.29,2.88-7.03v-.49c0-2.77-.98-5.13-2.95-7.1s-4.34-2.95-7.1-2.95ZM336.48,34.95c0,.84-.3,1.56-.9,2.14s-1.31.88-2.13.88h-33.15v-8.54h33.15c.82,0,1.53.29,2.13.88s.9,1.3.9,2.14v2.5ZM336.48,20.39c0,.82-.3,1.53-.9,2.13s-1.31.9-2.13.9h-33.15v-8.54h33.15c.82,0,1.53.29,2.13.88s.9,1.29.9,2.11v2.53Z"/>
        <path class="d" d="M397.51,8.83h-14.03c-2.39,0-4.52.89-6.4,2.67l-31.99,31.99c-.09.09-.12.2-.07.32s.14.18.28.18h8.96c.07,0,.14-.02.21-.07l28.34-28.16c.61-.59,1.31-.88,2.11-.88h5.87v28.83c0,.07.03.13.09.19s.12.09.19.09h6.43c.09,0,.17-.03.23-.09s.09-.12.09-.19V9.14c0-.09-.03-.17-.09-.23s-.13-.09-.23-.09Z"/>
        <path class="d" d="M445,23.38h-30.16c-.82,0-1.52-.29-2.11-.88s-.88-1.3-.88-2.14v-2.5c0-.84.29-1.56.88-2.14s1.29-.88,2.11-.88h37.9c.07,0,.13-.03.19-.09s.09-.12.09-.19v-5.45c0-.07-.03-.13-.09-.19s-.12-.09-.19-.09h-37.9c-2.77,0-5.13.98-7.08,2.94s-2.94,4.32-2.94,7.08v.53c0,2.77.98,5.13,2.94,7.08s4.32,2.94,7.08,2.94h30.16c.82,0,1.52.3,2.11.9s.88,1.31.88,2.13v2.53c0,.82-.29,1.52-.88,2.11s-1.29.88-2.11.88h-37.9c-.07,0-.13.03-.19.09s-.09.13-.09.23v5.41c0,.09.03.17.09.23s.12.09.19.09h37.9c2.77,0,5.13-.98,7.08-2.95s2.94-4.34,2.94-7.1v-.49c0-2.79-.98-5.16-2.94-7.12s-4.32-2.94-7.08-2.94Z"/>
        <path class="d" d="M470.25,15.74c.59-.6,1.3-.9,2.14-.9h39.87c.09,0,.17-.03.23-.09s.09-.12.09-.19v-5.41c0-.09-.03-.17-.09-.23s-.13-.09-.23-.09h-39.87c-2.79,0-5.16.98-7.12,2.94s-2.94,4.33-2.94,7.12v15.05c0,2.79.98,5.16,2.94,7.12s4.33,2.94,7.12,2.94h39.87c.09,0,.17-.03.23-.09s.09-.13.09-.23v-5.41c0-.07-.03-.13-.09-.19s-.13-.09-.23-.09h-39.87c-.84,0-1.56-.3-2.14-.9s-.88-1.31-.88-2.13v-5.52h37.86c.09,0,.17-.03.23-.09s.09-.13.09-.23v-5.41c0-.09-.03-.17-.09-.23s-.13-.09-.23-.09h-37.86v-5.52c0-.82.29-1.53.88-2.13Z"/>
      </g>
    </g>
  </g>
</svg>